<svg xmlns="http://www.w3.org/2000/svg" xmlns:xlink="http://www.w3.org/1999/xlink" width="1920" zoomAndPan="magnify" viewBox="0 0 1440 809.999993" height="1080" preserveAspectRatio="xMidYMid meet" version="1.0"><defs><g/><clipPath id="d7b840ad90"><path d="M 571 0 L 884.28125 0 L 884.28125 384.347656 L 571 384.347656 Z M 571 0 " clip-rule="nonzero"/></clipPath></defs><g clip-path="url(#d7b840ad90)"><path fill="#38b6ff" d="M 837.890625 226.90625 L 837.890625 162.023438 C 837.890625 161.664062 837.800781 161.304688 837.710938 161.035156 C 838.878906 154.746094 839.507812 148.277344 839.507812 141.714844 C 839.507812 83.304688 793.277344 35.675781 735.550781 33.160156 L 735.550781 4.761719 C 735.550781 2.15625 733.398438 0 730.792969 0 C 728.191406 0 726.035156 2.15625 726.035156 4.761719 L 726.035156 33.160156 C 668.3125 35.675781 622.082031 83.304688 622.082031 141.714844 C 622.082031 150.253906 623.160156 158.519531 625.042969 166.519531 L 625.042969 216.394531 L 613.015625 251.082031 L 575.671875 251.890625 C 573.695312 251.890625 571.898438 253.238281 571.273438 255.125 C 570.644531 257.011719 571.273438 259.167969 572.886719 260.335938 L 602.691406 282.890625 L 592.007812 318.835938 C 591.378906 320.726562 592.097656 322.882812 593.714844 324.050781 C 594.523438 324.679688 595.511719 324.949219 596.496094 324.949219 C 597.484375 324.949219 598.382812 324.679688 599.191406 324.140625 L 629.890625 302.753906 L 660.59375 324.140625 C 662.300781 325.308594 664.453125 325.308594 666.070312 324.050781 C 667.6875 322.882812 668.402344 320.816406 667.777344 318.835938 L 656.914062 282.980469 L 686.71875 260.335938 C 688.332031 259.078125 688.960938 257.011719 688.332031 255.125 C 687.703125 253.238281 685.910156 251.890625 683.933594 251.890625 L 646.5 251.171875 L 634.46875 216.664062 L 634.46875 192.128906 C 652.246094 226.097656 687.523438 249.460938 728.191406 250.453125 L 728.191406 320.457031 C 722.085938 312.367188 718.316406 302.304688 718.316406 291.429688 C 718.316406 288.015625 718.675781 284.601562 719.484375 281.09375 C 719.84375 279.296875 719.125 277.410156 717.6875 276.242188 C 716.164062 275.164062 714.1875 274.984375 712.570312 275.972656 C 694.4375 286.308594 683.214844 305.628906 683.214844 326.386719 C 683.214844 358.378906 709.160156 384.347656 741.117188 384.347656 C 768.140625 384.347656 791.929688 365.117188 797.675781 338.699219 C 798.035156 336.902344 797.316406 335.011719 795.878906 333.84375 C 794.351562 332.765625 792.378906 332.585938 790.761719 333.574219 C 783.492188 337.710938 775.230469 339.867188 766.882812 339.867188 C 755.929688 339.867188 745.875 336.09375 737.796875 329.890625 C 737.796875 329.890625 737.796875 329.800781 737.796875 329.800781 L 737.796875 250.183594 C 777.65625 247.664062 811.679688 223.492188 828.464844 189.34375 L 828.464844 227.355469 C 804.316406 230.5 785.644531 250.992188 785.644531 275.972656 C 785.644531 303.113281 807.730469 325.21875 834.839844 325.21875 C 861.949219 325.21875 884.035156 303.113281 884.035156 275.972656 C 883.945312 249.820312 863.566406 228.613281 837.890625 226.90625 Z M 643.179688 260.425781 L 670.289062 260.964844 L 648.746094 277.320312 C 647.128906 278.488281 646.5 280.554688 647.039062 282.441406 L 654.9375 308.414062 L 632.675781 292.957031 C 631.058594 291.878906 628.90625 291.878906 627.289062 292.957031 L 605.117188 308.414062 L 612.925781 282.441406 C 613.464844 280.554688 612.835938 278.488281 611.21875 277.320312 L 589.675781 260.964844 L 616.695312 260.425781 C 618.671875 260.425781 620.375 259.078125 621.09375 257.28125 L 628.996094 234.457031 C 629.355469 234.546875 629.621094 234.636719 629.980469 234.636719 C 630.339844 234.636719 630.609375 234.546875 630.878906 234.457031 L 638.871094 257.28125 C 639.40625 259.167969 641.203125 260.425781 643.179688 260.425781 Z M 785.285156 346.246094 C 777.566406 363.230469 760.328125 374.734375 741.207031 374.734375 C 714.457031 374.734375 692.730469 352.984375 692.730469 326.207031 C 692.730469 312.277344 698.835938 299.066406 709.070312 289.992188 C 709.070312 290.441406 709.070312 290.800781 709.070312 291.25 C 709.070312 323.242188 735.015625 349.210938 766.972656 349.210938 C 773.167969 349.300781 779.359375 348.222656 785.285156 346.246094 Z M 730.882812 241.015625 C 676.214844 241.015625 631.6875 196.441406 631.6875 141.714844 C 631.6875 86.988281 676.214844 42.414062 730.882812 42.414062 C 785.554688 42.414062 830.082031 86.988281 830.082031 141.714844 C 830.082031 196.441406 785.554688 241.015625 730.882812 241.015625 Z M 834.75 315.691406 C 812.84375 315.691406 794.980469 297.808594 794.980469 275.882812 C 794.980469 253.957031 812.84375 236.074219 834.75 236.074219 C 856.652344 236.074219 874.519531 253.957031 874.519531 275.882812 C 874.519531 297.808594 856.652344 315.691406 834.75 315.691406 Z M 834.75 315.691406 " fill-opacity="1" fill-rule="nonzero"/></g><g fill="#38b6ff" fill-opacity="1"><g transform="translate(232.754467, 614.567573)"><g><path d="M 2.421875 -38.40625 C 2.421875 -41.757812 2.757812 -44.117188 3.4375 -45.484375 C 4.125 -46.847656 5.367188 -47.53125 7.171875 -47.53125 C 8.972656 -47.53125 11.363281 -45.789062 14.34375 -42.3125 C 17.332031 -38.832031 20.722656 -35.351562 24.515625 -31.875 C 28.304688 -28.394531 32.066406 -26.65625 35.796875 -26.65625 C 38.648438 -26.65625 41.503906 -30.628906 44.359375 -38.578125 C 47.222656 -46.535156 50.269531 -56.757812 53.5 -69.25 C 56.726562 -81.738281 58.78125 -90.097656 59.65625 -94.328125 C 61.644531 -104.148438 63.070312 -110.113281 63.9375 -112.21875 C 60.582031 -111.476562 55.019531 -110.578125 47.25 -109.515625 C 39.488281 -108.460938 34.300781 -107.9375 31.6875 -107.9375 C 29.082031 -107.9375 26.972656 -108.742188 25.359375 -110.359375 C 23.742188 -111.972656 22.9375 -113.898438 22.9375 -116.140625 C 22.9375 -120.617188 27.6875 -124.660156 37.1875 -128.265625 C 46.695312 -131.867188 56.203125 -134.382812 65.703125 -135.8125 C 75.210938 -137.238281 81.769531 -137.953125 85.375 -137.953125 C 92.34375 -137.953125 95.828125 -135.710938 95.828125 -131.234375 C 95.828125 -129.367188 93.585938 -121.601562 89.109375 -107.9375 C 84.640625 -94.269531 81.90625 -85.320312 80.90625 -81.09375 C 74.195312 -52.632812 69.164062 -34.238281 65.8125 -25.90625 C 60.59375 -12.863281 53.878906 -5.285156 45.671875 -3.171875 C 43.679688 -2.671875 41.691406 -2.421875 39.703125 -2.421875 C 30.878906 -2.421875 22.457031 -6.675781 14.4375 -15.1875 C 6.425781 -23.707031 2.421875 -31.445312 2.421875 -38.40625 Z M 2.421875 -38.40625 "/></g></g></g><g fill="#38b6ff" fill-opacity="1"><g transform="translate(320.179904, 614.567573)"><g><path d="M 31.6875 -139.25 C 34.800781 -139.25 38.75 -137.007812 43.53125 -132.53125 C 48.3125 -128.0625 50.703125 -123.679688 50.703125 -119.390625 C 50.703125 -115.109375 48.460938 -104.019531 43.984375 -86.125 C 39.515625 -68.226562 37.28125 -55.894531 37.28125 -49.125 C 37.28125 -42.351562 38.117188 -37.164062 39.796875 -33.5625 C 41.472656 -29.957031 43.832031 -28.15625 46.875 -28.15625 C 49.925781 -28.15625 53.5 -30.359375 57.59375 -34.765625 C 61.695312 -39.179688 65.644531 -44.898438 69.4375 -51.921875 C 73.226562 -58.941406 76.394531 -67.328125 78.9375 -77.078125 C 81.488281 -86.835938 82.765625 -95.910156 82.765625 -104.296875 C 82.765625 -112.691406 82.359375 -119.4375 81.546875 -124.53125 C 80.742188 -129.625 80.34375 -132.671875 80.34375 -133.671875 C 80.34375 -137.515625 81.957031 -139.4375 85.1875 -139.4375 C 89.164062 -139.4375 94.289062 -136.082031 100.5625 -129.375 C 106.84375 -122.664062 109.984375 -114.679688 109.984375 -105.421875 C 109.984375 -96.160156 108.367188 -85.53125 105.140625 -73.53125 C 101.910156 -61.539062 97.5625 -50.203125 92.09375 -39.515625 C 86.625 -28.828125 79.691406 -19.941406 71.296875 -12.859375 C 62.910156 -5.773438 54.335938 -2.234375 45.578125 -2.234375 C 36.816406 -2.234375 28.894531 -6.832031 21.8125 -16.03125 C 14.726562 -25.226562 11.1875 -34.609375 11.1875 -44.171875 C 11.1875 -53.742188 12.425781 -64.835938 14.90625 -77.453125 C 17.394531 -90.066406 19.878906 -101.40625 22.359375 -111.46875 C 24.847656 -121.539062 26.09375 -128.6875 26.09375 -132.90625 C 26.09375 -137.132812 27.957031 -139.25 31.6875 -139.25 Z M 31.6875 -139.25 "/></g></g></g><g fill="#38b6ff" fill-opacity="1"><g transform="translate(427.923935, 614.567573)"><g><path d="M 51.640625 -63.375 C 51.640625 -65.988281 54.617188 -68.101562 60.578125 -69.71875 C 66.546875 -71.332031 73.007812 -72.140625 79.96875 -72.140625 C 86.9375 -72.140625 92.25 -69.34375 95.90625 -63.75 C 99.570312 -58.164062 101.40625 -51.953125 101.40625 -45.109375 C 101.40625 -38.273438 98.515625 -26.5 92.734375 -9.78125 C 86.960938 6.925781 81.960938 15.28125 77.734375 15.28125 C 75.992188 15.28125 74.535156 14.753906 73.359375 13.703125 C 72.179688 12.648438 71.59375 11.3125 71.59375 9.6875 C 71.59375 0.738281 74.078125 -12.054688 79.046875 -28.703125 C 73.203125 -21.253906 66.832031 -15.226562 59.9375 -10.625 C 53.039062 -6.03125 45.957031 -3.734375 38.6875 -3.734375 C 31.414062 -3.734375 23.800781 -6.898438 15.84375 -13.234375 C 7.894531 -19.578125 3.921875 -26.535156 3.921875 -34.109375 C 3.921875 -47.535156 7.894531 -62.421875 15.84375 -78.765625 C 23.800781 -95.109375 33.867188 -109.054688 46.046875 -120.609375 C 58.222656 -132.171875 69.71875 -137.953125 80.53125 -137.953125 C 84.257812 -137.953125 88.144531 -135.03125 92.1875 -129.1875 C 96.226562 -123.34375 98.25 -118 98.25 -113.15625 C 98.25 -110.914062 97.441406 -109.796875 95.828125 -109.796875 C 95.578125 -109.796875 94.394531 -110.046875 92.28125 -110.546875 C 90.164062 -111.046875 87.554688 -111.296875 84.453125 -111.296875 C 76.117188 -111.296875 67.601562 -107.035156 58.90625 -98.515625 C 50.207031 -90.003906 43.125 -79.535156 37.65625 -67.109375 C 32.1875 -54.679688 29.453125 -43 29.453125 -32.0625 C 29.453125 -28.832031 31.566406 -27.21875 35.796875 -27.21875 C 41.640625 -27.21875 48.816406 -29.828125 57.328125 -35.046875 C 65.835938 -40.265625 72.394531 -46.109375 77 -52.578125 C 74.257812 -52.453125 70.929688 -52.390625 67.015625 -52.390625 C 63.097656 -52.390625 59.554688 -53.566406 56.390625 -55.921875 C 53.222656 -58.285156 51.640625 -60.769531 51.640625 -63.375 Z M 51.640625 -63.375 "/></g></g></g><g fill="#38b6ff" fill-opacity="1"><g transform="translate(536.040775, 614.567573)"><g><path d="M 31.6875 -139.25 C 34.800781 -139.25 38.75 -137.007812 43.53125 -132.53125 C 48.3125 -128.0625 50.703125 -123.679688 50.703125 -119.390625 C 50.703125 -115.109375 48.460938 -104.019531 43.984375 -86.125 C 39.515625 -68.226562 37.28125 -55.894531 37.28125 -49.125 C 37.28125 -42.351562 38.117188 -37.164062 39.796875 -33.5625 C 41.472656 -29.957031 43.832031 -28.15625 46.875 -28.15625 C 49.925781 -28.15625 53.5 -30.359375 57.59375 -34.765625 C 61.695312 -39.179688 65.644531 -44.898438 69.4375 -51.921875 C 73.226562 -58.941406 76.394531 -67.328125 78.9375 -77.078125 C 81.488281 -86.835938 82.765625 -95.910156 82.765625 -104.296875 C 82.765625 -112.691406 82.359375 -119.4375 81.546875 -124.53125 C 80.742188 -129.625 80.34375 -132.671875 80.34375 -133.671875 C 80.34375 -137.515625 81.957031 -139.4375 85.1875 -139.4375 C 89.164062 -139.4375 94.289062 -136.082031 100.5625 -129.375 C 106.84375 -122.664062 109.984375 -114.679688 109.984375 -105.421875 C 109.984375 -96.160156 108.367188 -85.53125 105.140625 -73.53125 C 101.910156 -61.539062 97.5625 -50.203125 92.09375 -39.515625 C 86.625 -28.828125 79.691406 -19.941406 71.296875 -12.859375 C 62.910156 -5.773438 54.335938 -2.234375 45.578125 -2.234375 C 36.816406 -2.234375 28.894531 -6.832031 21.8125 -16.03125 C 14.726562 -25.226562 11.1875 -34.609375 11.1875 -44.171875 C 11.1875 -53.742188 12.425781 -64.835938 14.90625 -77.453125 C 17.394531 -90.066406 19.878906 -101.40625 22.359375 -111.46875 C 24.847656 -121.539062 26.09375 -128.6875 26.09375 -132.90625 C 26.09375 -137.132812 27.957031 -139.25 31.6875 -139.25 Z M 31.6875 -139.25 "/></g></g></g><g fill="#38b6ff" fill-opacity="1"><g transform="translate(643.784797, 614.567573)"><g><path d="M 46.234375 -80.71875 C 52.816406 -80.71875 59.898438 -81.054688 67.484375 -81.734375 C 75.066406 -82.421875 79.757812 -82.765625 81.5625 -82.765625 C 83.363281 -82.765625 84.789062 -82.328125 85.84375 -81.453125 C 86.90625 -80.585938 87.4375 -79.535156 87.4375 -78.296875 C 87.4375 -72.828125 82.273438 -68.476562 71.953125 -65.25 C 61.640625 -62.019531 50.644531 -60.15625 38.96875 -59.65625 C 34.113281 -44.613281 31.6875 -35.101562 31.6875 -31.125 C 31.6875 -29.019531 32.742188 -27.96875 34.859375 -27.96875 C 49.023438 -27.96875 63.628906 -29.832031 78.671875 -33.5625 C 83.765625 -34.925781 86.6875 -35.609375 87.4375 -35.609375 C 89.789062 -35.609375 90.96875 -33.929688 90.96875 -30.578125 C 90.96875 -26.097656 87.675781 -21.742188 81.09375 -17.515625 C 74.507812 -13.296875 66.242188 -9.941406 56.296875 -7.453125 C 46.359375 -4.972656 36.601562 -3.734375 27.03125 -3.734375 C 21.3125 -3.734375 16.148438 -5.875 11.546875 -10.15625 C 6.953125 -14.445312 4.65625 -19.476562 4.65625 -25.25 C 4.65625 -31.03125 7.851562 -45.539062 14.25 -68.78125 C 20.65625 -92.03125 24.046875 -109.554688 24.421875 -121.359375 C 24.296875 -121.734375 24.234375 -122.476562 24.234375 -123.59375 C 24.234375 -125.332031 24.484375 -126.703125 24.984375 -127.703125 C 26.347656 -131.179688 30.132812 -133.382812 36.34375 -134.3125 C 42.5625 -135.25 53.75 -135.71875 69.90625 -135.71875 C 96.75 -135.71875 110.171875 -132.734375 110.171875 -126.765625 C 110.171875 -122.910156 106.878906 -120.238281 100.296875 -118.75 C 95.816406 -117.757812 89.664062 -116.828125 81.84375 -115.953125 C 69.78125 -114.585938 59.03125 -112.597656 49.59375 -109.984375 C 49.59375 -101.535156 48.097656 -91.78125 45.109375 -80.71875 Z M 46.234375 -80.71875 "/></g></g></g><g fill="#38b6ff" fill-opacity="1"><g transform="translate(743.326844, 614.567573)"><g><path d="M 45.671875 -112.40625 C 32.253906 -111.664062 24.921875 -111.296875 23.671875 -111.296875 C 20.691406 -111.296875 17.707031 -113.128906 14.71875 -116.796875 C 11.738281 -120.460938 10.25 -124.285156 10.25 -128.265625 C 10.25 -134.347656 27.960938 -137.390625 63.390625 -137.390625 C 81.523438 -137.390625 94.878906 -135.523438 103.453125 -131.796875 C 112.035156 -128.066406 116.328125 -123.53125 116.328125 -118.1875 C 116.328125 -116.570312 115.394531 -115.050781 113.53125 -113.625 C 111.664062 -112.195312 109.300781 -111.484375 106.4375 -111.484375 C 103.582031 -111.484375 98.363281 -111.664062 90.78125 -112.03125 C 83.207031 -112.40625 76.3125 -112.65625 70.09375 -112.78125 C 70.59375 -111.289062 70.84375 -109.550781 70.84375 -107.5625 C 70.84375 -105.570312 70.125 -101.65625 68.6875 -95.8125 C 67.257812 -89.976562 65.238281 -81.867188 62.625 -71.484375 C 60.019531 -61.109375 57.164062 -48.554688 54.0625 -33.828125 C 50.957031 -19.109375 48.8125 -10.347656 47.625 -7.546875 C 46.445312 -4.753906 45.300781 -3.359375 44.1875 -3.359375 C 41.570312 -3.359375 38.304688 -5.75 34.390625 -10.53125 C 30.472656 -15.3125 28.515625 -19.191406 28.515625 -22.171875 C 28.515625 -25.160156 31.0625 -37.5 36.15625 -59.1875 C 41.257812 -80.875 44.429688 -98.613281 45.671875 -112.40625 Z M 45.671875 -112.40625 "/></g></g></g><g fill="#38b6ff" fill-opacity="1"><g transform="translate(841.564037, 614.567573)"><g><path d="M 46.234375 -80.71875 C 52.816406 -80.71875 59.898438 -81.054688 67.484375 -81.734375 C 75.066406 -82.421875 79.757812 -82.765625 81.5625 -82.765625 C 83.363281 -82.765625 84.789062 -82.328125 85.84375 -81.453125 C 86.90625 -80.585938 87.4375 -79.535156 87.4375 -78.296875 C 87.4375 -72.828125 82.273438 -68.476562 71.953125 -65.25 C 61.640625 -62.019531 50.644531 -60.15625 38.96875 -59.65625 C 34.113281 -44.613281 31.6875 -35.101562 31.6875 -31.125 C 31.6875 -29.019531 32.742188 -27.96875 34.859375 -27.96875 C 49.023438 -27.96875 63.628906 -29.832031 78.671875 -33.5625 C 83.765625 -34.925781 86.6875 -35.609375 87.4375 -35.609375 C 89.789062 -35.609375 90.96875 -33.929688 90.96875 -30.578125 C 90.96875 -26.097656 87.675781 -21.742188 81.09375 -17.515625 C 74.507812 -13.296875 66.242188 -9.941406 56.296875 -7.453125 C 46.359375 -4.972656 36.601562 -3.734375 27.03125 -3.734375 C 21.3125 -3.734375 16.148438 -5.875 11.546875 -10.15625 C 6.953125 -14.445312 4.65625 -19.476562 4.65625 -25.25 C 4.65625 -31.03125 7.851562 -45.539062 14.25 -68.78125 C 20.65625 -92.03125 24.046875 -109.554688 24.421875 -121.359375 C 24.296875 -121.734375 24.234375 -122.476562 24.234375 -123.59375 C 24.234375 -125.332031 24.484375 -126.703125 24.984375 -127.703125 C 26.347656 -131.179688 30.132812 -133.382812 36.34375 -134.3125 C 42.5625 -135.25 53.75 -135.71875 69.90625 -135.71875 C 96.75 -135.71875 110.171875 -132.734375 110.171875 -126.765625 C 110.171875 -122.910156 106.878906 -120.238281 100.296875 -118.75 C 95.816406 -117.757812 89.664062 -116.828125 81.84375 -115.953125 C 69.78125 -114.585938 59.03125 -112.597656 49.59375 -109.984375 C 49.59375 -101.535156 48.097656 -91.78125 45.109375 -80.71875 Z M 46.234375 -80.71875 "/></g></g></g><g fill="#38b6ff" fill-opacity="1"><g transform="translate(941.106084, 614.567573)"><g><path d="M 105.703125 -9.140625 C 105.703125 -4.035156 102.160156 -1.484375 95.078125 -1.484375 C 85.378906 -1.484375 75.21875 -6.515625 64.59375 -16.578125 C 53.96875 -26.648438 46.414062 -37.15625 41.9375 -48.09375 C 39.957031 -42.132812 38.59375 -38.097656 37.84375 -35.984375 C 37.09375 -33.867188 35.972656 -30.507812 34.484375 -25.90625 C 32.992188 -21.3125 31.84375 -17.894531 31.03125 -15.65625 C 30.226562 -13.414062 29.332031 -11.054688 28.34375 -8.578125 C 26.476562 -3.847656 24.675781 -1.484375 22.9375 -1.484375 C 20.070312 -1.484375 16.617188 -3.875 12.578125 -8.65625 C 8.546875 -13.445312 6.53125 -17.332031 6.53125 -20.3125 C 6.53125 -23.300781 7.957031 -28.832031 10.8125 -36.90625 C 19.257812 -61.644531 24.109375 -84.203125 25.359375 -104.578125 C 22.992188 -106.441406 20.878906 -109.050781 19.015625 -112.40625 C 17.148438 -115.769531 16.21875 -118.566406 16.21875 -120.796875 C 16.21875 -124.523438 21.03125 -128.441406 30.65625 -132.546875 C 40.289062 -136.648438 51.414062 -138.703125 64.03125 -138.703125 C 76.644531 -138.703125 87.175781 -135.71875 95.625 -129.75 C 104.082031 -123.78125 108.3125 -116.015625 108.3125 -106.453125 C 108.3125 -99.367188 106.226562 -92.5625 102.0625 -86.03125 C 97.90625 -79.507812 93.367188 -74.414062 88.453125 -70.75 C 83.546875 -67.082031 79.007812 -63.753906 74.84375 -60.765625 C 70.6875 -57.785156 68.609375 -55.863281 68.609375 -55 C 68.609375 -52.007812 69.597656 -49.175781 71.578125 -46.5 C 73.566406 -43.832031 76.363281 -40.726562 79.96875 -37.1875 C 83.570312 -33.644531 86.675781 -30.660156 89.28125 -28.234375 C 91.894531 -25.816406 94.039062 -23.800781 95.71875 -22.1875 C 97.40625 -20.570312 99.054688 -18.894531 100.671875 -17.15625 C 104.023438 -13.914062 105.703125 -11.242188 105.703125 -9.140625 Z M 79.609375 -104.578125 C 79.609375 -109.796875 74.507812 -112.40625 64.3125 -112.40625 C 59.46875 -112.40625 53.691406 -111.039062 46.984375 -108.3125 C 50.085938 -103.59375 51.640625 -99.242188 51.640625 -95.265625 C 51.640625 -88.054688 50.644531 -80.101562 48.65625 -71.40625 C 50.019531 -72.394531 52.566406 -74.160156 56.296875 -76.703125 C 60.023438 -79.253906 62.914062 -81.304688 64.96875 -82.859375 C 67.019531 -84.410156 69.347656 -86.429688 71.953125 -88.921875 C 77.054688 -93.765625 79.609375 -98.984375 79.609375 -104.578125 Z M 79.609375 -104.578125 "/></g></g></g><g fill="#38b6ff" fill-opacity="1"><g transform="translate(1049.968543, 614.567573)"><g><path d="M 48.5625 -147.265625 C 46.507812 -147.265625 44.769531 -148.164062 43.34375 -149.96875 C 41.914062 -151.769531 41.203125 -153.882812 41.203125 -156.3125 C 41.203125 -158.738281 41.945312 -161.097656 43.4375 -163.390625 C 44.925781 -165.691406 47.191406 -168.113281 50.234375 -170.65625 C 53.285156 -173.207031 55.957031 -175.507812 58.25 -177.5625 C 60.550781 -179.613281 62.257812 -181.101562 63.375 -182.03125 C 64.5 -182.96875 65.742188 -183.992188 67.109375 -185.109375 C 68.472656 -186.234375 69.53125 -187.046875 70.28125 -187.546875 C 72.144531 -188.535156 73.757812 -189.03125 75.125 -189.03125 C 78.113281 -189.03125 80.847656 -187.320312 83.328125 -183.90625 C 85.816406 -180.488281 87.0625 -177.410156 87.0625 -174.671875 C 87.0625 -171.941406 86.84375 -169.984375 86.40625 -168.796875 C 85.96875 -167.617188 84.972656 -166.46875 83.421875 -165.34375 C 81.867188 -164.226562 80.378906 -163.296875 78.953125 -162.546875 C 77.523438 -161.804688 75.097656 -160.597656 71.671875 -158.921875 C 68.253906 -157.242188 65.519531 -155.84375 63.46875 -154.71875 C 61.425781 -153.601562 59.285156 -152.363281 57.046875 -151 C 53.441406 -148.507812 50.613281 -147.265625 48.5625 -147.265625 Z M 25.71875 -2.421875 C 23.238281 -2.421875 19.882812 -5 15.65625 -10.15625 C 11.4375 -15.3125 9.328125 -19.070312 9.328125 -21.4375 C 9.328125 -23.800781 12.398438 -41.109375 18.546875 -73.359375 C 24.703125 -105.609375 27.90625 -125.398438 28.15625 -132.734375 C 28.394531 -136.835938 30.316406 -138.890625 33.921875 -138.890625 C 36.910156 -138.890625 40.890625 -135.90625 45.859375 -129.9375 C 50.828125 -123.96875 53.3125 -118.375 53.3125 -113.15625 C 53.3125 -110.914062 51.601562 -102.492188 48.1875 -87.890625 C 44.769531 -73.296875 42.46875 -63.109375 41.28125 -57.328125 C 40.101562 -51.546875 39.078125 -46.382812 38.203125 -41.84375 C 37.335938 -37.3125 36.660156 -33.738281 36.171875 -31.125 C 32.691406 -15.21875 29.957031 -6.085938 27.96875 -3.734375 C 27.21875 -2.859375 26.46875 -2.421875 25.71875 -2.421875 Z M 25.71875 -2.421875 "/></g></g></g><g fill="#38b6ff" fill-opacity="1"><g transform="translate(1104.399577, 614.567573)"><g><path d="M 94.890625 -72.328125 C 99.859375 -72.328125 103.429688 -71.859375 105.609375 -70.921875 C 107.785156 -69.992188 108.875 -68.289062 108.875 -65.8125 C 108.875 -62.457031 103.46875 -59.035156 92.65625 -55.546875 C 92.90625 -46.109375 93.03125 -37.066406 93.03125 -28.421875 C 93.03125 -19.785156 92.34375 -13.320312 90.96875 -9.03125 C 89.601562 -4.75 87.425781 -2.609375 84.4375 -2.609375 C 81.457031 -2.609375 79.128906 -4.128906 77.453125 -7.171875 C 75.773438 -10.222656 74.40625 -15.226562 73.34375 -22.1875 C 72.289062 -29.144531 71.207031 -38.34375 70.09375 -49.78125 C 57.414062 -46.914062 48.28125 -44.613281 42.6875 -42.875 C 33 -16.03125 26.535156 -2.609375 23.296875 -2.609375 C 20.691406 -2.609375 17.242188 -4.347656 12.953125 -7.828125 C 8.671875 -11.304688 6.53125 -14.910156 6.53125 -18.640625 C 6.53125 -20.753906 8.953125 -27.34375 13.796875 -38.40625 C 11.679688 -39.769531 9.847656 -41.722656 8.296875 -44.265625 C 6.742188 -46.816406 5.96875 -49.273438 5.96875 -51.640625 C 5.96875 -55.742188 12.117188 -59.660156 24.421875 -63.390625 C 25.410156 -65.867188 26.429688 -68.691406 27.484375 -71.859375 C 28.546875 -75.035156 31.21875 -82.460938 35.5 -94.140625 C 39.789062 -105.828125 43.179688 -115.582031 45.671875 -123.40625 C 46.785156 -127.132812 50.664062 -130.613281 57.3125 -133.84375 C 63.96875 -137.082031 69.160156 -138.703125 72.890625 -138.703125 C 77.242188 -138.703125 81.128906 -132.671875 84.546875 -120.609375 C 87.960938 -108.554688 90.351562 -92.460938 91.71875 -72.328125 Z M 51.828125 -69.15625 C 55.554688 -69.65625 60.960938 -70.28125 68.046875 -71.03125 C 67.671875 -74.632812 67.078125 -80.785156 66.265625 -89.484375 C 65.460938 -98.179688 64.875 -104.457031 64.5 -108.3125 C 62.382812 -101.351562 58.160156 -88.300781 51.828125 -69.15625 Z M 51.828125 -69.15625 "/></g></g></g><g fill="#38b6ff" fill-opacity="1"><g transform="translate(581.050533, 778.556384)"><g><path d="M 1.21875 -19.203125 C 1.21875 -20.878906 1.382812 -22.054688 1.71875 -22.734375 C 2.0625 -23.421875 2.679688 -23.765625 3.578125 -23.765625 C 4.484375 -23.765625 5.679688 -22.894531 7.171875 -21.15625 C 8.660156 -19.414062 10.351562 -17.675781 12.25 -15.9375 C 14.144531 -14.195312 16.023438 -13.328125 17.890625 -13.328125 C 19.316406 -13.328125 20.742188 -15.316406 22.171875 -19.296875 C 23.609375 -23.273438 25.132812 -28.382812 26.75 -34.625 C 28.363281 -40.863281 29.390625 -45.039062 29.828125 -47.15625 C 30.816406 -52.070312 31.53125 -55.054688 31.96875 -56.109375 C 30.289062 -55.734375 27.507812 -55.28125 23.625 -54.75 C 19.738281 -54.226562 17.144531 -53.96875 15.84375 -53.96875 C 14.539062 -53.96875 13.484375 -54.367188 12.671875 -55.171875 C 11.867188 -55.984375 11.46875 -56.945312 11.46875 -58.0625 C 11.46875 -60.300781 13.84375 -62.320312 18.59375 -64.125 C 23.34375 -65.925781 28.09375 -67.179688 32.84375 -67.890625 C 37.601562 -68.609375 40.882812 -68.96875 42.6875 -68.96875 C 46.164062 -68.96875 47.90625 -67.847656 47.90625 -65.609375 C 47.90625 -64.679688 46.785156 -60.800781 44.546875 -53.96875 C 42.316406 -47.132812 40.953125 -42.660156 40.453125 -40.546875 C 37.097656 -26.316406 34.582031 -17.117188 32.90625 -12.953125 C 30.289062 -6.429688 26.929688 -2.640625 22.828125 -1.578125 C 21.835938 -1.335938 20.847656 -1.21875 19.859375 -1.21875 C 15.441406 -1.21875 11.226562 -3.34375 7.21875 -7.59375 C 3.21875 -11.851562 1.21875 -15.722656 1.21875 -19.203125 Z M 1.21875 -19.203125 "/></g></g></g><g fill="#38b6ff" fill-opacity="1"><g transform="translate(624.763339, 778.556384)"><g><path d="M 47.4375 -36.15625 C 49.925781 -36.15625 51.710938 -35.921875 52.796875 -35.453125 C 53.890625 -34.992188 54.4375 -34.144531 54.4375 -32.90625 C 54.4375 -31.226562 51.734375 -29.519531 46.328125 -27.78125 C 46.453125 -23.050781 46.515625 -18.523438 46.515625 -14.203125 C 46.515625 -9.890625 46.171875 -6.660156 45.484375 -4.515625 C 44.796875 -2.378906 43.707031 -1.3125 42.21875 -1.3125 C 40.726562 -1.3125 39.5625 -2.070312 38.71875 -3.59375 C 37.882812 -5.113281 37.203125 -7.613281 36.671875 -11.09375 C 36.148438 -14.570312 35.609375 -19.171875 35.046875 -24.890625 C 28.703125 -23.453125 24.132812 -22.300781 21.34375 -21.4375 C 16.5 -8.019531 13.269531 -1.3125 11.65625 -1.3125 C 10.34375 -1.3125 8.613281 -2.179688 6.46875 -3.921875 C 4.332031 -5.660156 3.265625 -7.457031 3.265625 -9.3125 C 3.265625 -10.375 4.472656 -13.671875 6.890625 -19.203125 C 5.835938 -19.878906 4.921875 -20.851562 4.140625 -22.125 C 3.367188 -23.40625 2.984375 -24.632812 2.984375 -25.8125 C 2.984375 -27.863281 6.054688 -29.820312 12.203125 -31.6875 C 12.703125 -32.925781 13.21875 -34.335938 13.75 -35.921875 C 14.28125 -37.515625 15.613281 -41.226562 17.75 -47.0625 C 19.894531 -52.90625 21.585938 -57.785156 22.828125 -61.703125 C 23.390625 -63.566406 25.332031 -65.304688 28.65625 -66.921875 C 31.976562 -68.535156 34.570312 -69.34375 36.4375 -69.34375 C 38.613281 -69.34375 40.554688 -66.328125 42.265625 -60.296875 C 43.972656 -54.273438 45.171875 -46.226562 45.859375 -36.15625 Z M 25.90625 -34.578125 C 27.769531 -34.828125 30.472656 -35.140625 34.015625 -35.515625 C 33.828125 -37.316406 33.53125 -40.390625 33.125 -44.734375 C 32.726562 -49.085938 32.4375 -52.226562 32.25 -54.15625 C 31.1875 -50.675781 29.070312 -44.148438 25.90625 -34.578125 Z M 25.90625 -34.578125 "/></g></g></g><g fill="#38b6ff" fill-opacity="1"><g transform="translate(681.897622, 778.556384)"><g><path d="M 16.6875 -69.4375 C 17.863281 -69.4375 20.175781 -68.175781 23.625 -65.65625 C 27.070312 -63.144531 28.796875 -61.265625 28.796875 -60.015625 C 28.796875 -57.847656 29.507812 -54.273438 30.9375 -49.296875 C 32.375 -44.328125 34.023438 -39.828125 35.890625 -35.796875 C 37.742188 -37.960938 40.890625 -41.984375 45.328125 -47.859375 C 49.773438 -53.734375 53.519531 -58.378906 56.5625 -61.796875 C 59.613281 -65.210938 61.882812 -66.921875 63.375 -66.921875 C 64.863281 -66.921875 66.414062 -66.082031 68.03125 -64.40625 C 69.65625 -62.726562 70.46875 -61.050781 70.46875 -59.375 C 70.46875 -57.695312 70.21875 -55.535156 69.71875 -52.890625 C 69.21875 -50.253906 68.671875 -47.800781 68.078125 -45.53125 C 67.492188 -43.257812 66.65625 -40.164062 65.5625 -36.25 C 64.476562 -32.34375 63.640625 -29.253906 63.046875 -26.984375 C 62.460938 -24.710938 61.859375 -22.285156 61.234375 -19.703125 C 60.609375 -17.128906 60.125 -15.113281 59.78125 -13.65625 C 59.445312 -12.195312 59.078125 -10.671875 58.671875 -9.078125 C 58.265625 -7.492188 57.90625 -6.28125 57.59375 -5.4375 C 57.289062 -4.601562 56.953125 -3.847656 56.578125 -3.171875 C 55.890625 -1.867188 54.925781 -1.21875 53.6875 -1.21875 C 52.445312 -1.21875 51.21875 -2.441406 50 -4.890625 C 48.789062 -7.347656 48.1875 -9.910156 48.1875 -12.578125 C 48.1875 -19.171875 50.082031 -27.898438 53.875 -38.765625 C 52.8125 -37.398438 51.285156 -35.394531 49.296875 -32.75 C 47.316406 -30.113281 45.84375 -28.191406 44.875 -26.984375 C 43.914062 -25.773438 42.71875 -24.359375 41.28125 -22.734375 C 38.738281 -19.941406 36.253906 -18.546875 33.828125 -18.546875 C 30.597656 -18.546875 28.300781 -19.820312 26.9375 -22.375 C 26.25 -23.675781 25.332031 -26.609375 24.1875 -31.171875 C 23.039062 -35.742188 22.21875 -38.898438 21.71875 -40.640625 C 20.90625 -34.234375 19.816406 -28.421875 18.453125 -23.203125 C 17.085938 -17.984375 16.1875 -14.566406 15.75 -12.953125 C 15.3125 -11.335938 14.722656 -9.378906 13.984375 -7.078125 C 12.734375 -3.171875 11.613281 -1.21875 10.625 -1.21875 C 9.507812 -1.21875 7.972656 -2.691406 6.015625 -5.640625 C 4.054688 -8.585938 3.078125 -10.898438 3.078125 -12.578125 C 3.078125 -14.253906 4.894531 -22.640625 8.53125 -37.734375 C 12.164062 -52.835938 13.984375 -62.378906 13.984375 -66.359375 C 13.984375 -68.410156 14.882812 -69.4375 16.6875 -69.4375 Z M 16.6875 -69.4375 "/></g></g></g><g fill="#38b6ff" fill-opacity="1"><g transform="translate(750.775683, 778.556384)"><g><path d="M 16.6875 -69.4375 C 17.863281 -69.4375 20.175781 -68.175781 23.625 -65.65625 C 27.070312 -63.144531 28.796875 -61.265625 28.796875 -60.015625 C 28.796875 -57.847656 29.507812 -54.273438 30.9375 -49.296875 C 32.375 -44.328125 34.023438 -39.828125 35.890625 -35.796875 C 37.742188 -37.960938 40.890625 -41.984375 45.328125 -47.859375 C 49.773438 -53.734375 53.519531 -58.378906 56.5625 -61.796875 C 59.613281 -65.210938 61.882812 -66.921875 63.375 -66.921875 C 64.863281 -66.921875 66.414062 -66.082031 68.03125 -64.40625 C 69.65625 -62.726562 70.46875 -61.050781 70.46875 -59.375 C 70.46875 -57.695312 70.21875 -55.535156 69.71875 -52.890625 C 69.21875 -50.253906 68.671875 -47.800781 68.078125 -45.53125 C 67.492188 -43.257812 66.65625 -40.164062 65.5625 -36.25 C 64.476562 -32.34375 63.640625 -29.253906 63.046875 -26.984375 C 62.460938 -24.710938 61.859375 -22.285156 61.234375 -19.703125 C 60.609375 -17.128906 60.125 -15.113281 59.78125 -13.65625 C 59.445312 -12.195312 59.078125 -10.671875 58.671875 -9.078125 C 58.265625 -7.492188 57.90625 -6.28125 57.59375 -5.4375 C 57.289062 -4.601562 56.953125 -3.847656 56.578125 -3.171875 C 55.890625 -1.867188 54.925781 -1.21875 53.6875 -1.21875 C 52.445312 -1.21875 51.21875 -2.441406 50 -4.890625 C 48.789062 -7.347656 48.1875 -9.910156 48.1875 -12.578125 C 48.1875 -19.171875 50.082031 -27.898438 53.875 -38.765625 C 52.8125 -37.398438 51.285156 -35.394531 49.296875 -32.75 C 47.316406 -30.113281 45.84375 -28.191406 44.875 -26.984375 C 43.914062 -25.773438 42.71875 -24.359375 41.28125 -22.734375 C 38.738281 -19.941406 36.253906 -18.546875 33.828125 -18.546875 C 30.597656 -18.546875 28.300781 -19.820312 26.9375 -22.375 C 26.25 -23.675781 25.332031 -26.609375 24.1875 -31.171875 C 23.039062 -35.742188 22.21875 -38.898438 21.71875 -40.640625 C 20.90625 -34.234375 19.816406 -28.421875 18.453125 -23.203125 C 17.085938 -17.984375 16.1875 -14.566406 15.75 -12.953125 C 15.3125 -11.335938 14.722656 -9.378906 13.984375 -7.078125 C 12.734375 -3.171875 11.613281 -1.21875 10.625 -1.21875 C 9.507812 -1.21875 7.972656 -2.691406 6.015625 -5.640625 C 4.054688 -8.585938 3.078125 -10.898438 3.078125 -12.578125 C 3.078125 -14.253906 4.894531 -22.640625 8.53125 -37.734375 C 12.164062 -52.835938 13.984375 -62.378906 13.984375 -66.359375 C 13.984375 -68.410156 14.882812 -69.4375 16.6875 -69.4375 Z M 16.6875 -69.4375 "/></g></g></g><g fill="#38b6ff" fill-opacity="1"><g transform="translate(819.653752, 778.556384)"><g><path d="M 28.140625 -37.65625 C 29.265625 -37.65625 31.238281 -40.328125 34.0625 -45.671875 C 36.894531 -51.015625 39.769531 -56.34375 42.6875 -61.65625 C 45.601562 -66.96875 47.78125 -69.625 49.21875 -69.625 C 51.320312 -69.625 53.070312 -68.660156 54.46875 -66.734375 C 55.875 -64.804688 56.578125 -62.507812 56.578125 -59.84375 C 56.578125 -57.976562 54.957031 -54.390625 51.71875 -49.078125 C 48.488281 -43.765625 44.390625 -37.191406 39.421875 -29.359375 C 34.453125 -21.523438 30.628906 -14.875 27.953125 -9.40625 C 27.148438 -7.664062 25.847656 -5.863281 24.046875 -4 C 22.242188 -2.144531 20.503906 -1.21875 18.828125 -1.21875 C 16.335938 -1.21875 15.09375 -3.203125 15.09375 -7.171875 C 15.09375 -9.535156 17.457031 -15.035156 22.1875 -23.671875 C 22.925781 -25.035156 23.453125 -26.0625 23.765625 -26.75 C 21.035156 -27.800781 18.550781 -29.539062 16.3125 -31.96875 C 14.070312 -34.394531 12.300781 -37.128906 11 -40.171875 C 8.257812 -46.566406 6.890625 -52.78125 6.890625 -58.8125 C 6.890625 -62.539062 7.304688 -65.273438 8.140625 -67.015625 C 8.984375 -68.753906 10.710938 -69.625 13.328125 -69.625 C 14.691406 -69.625 15.710938 -68.675781 16.390625 -66.78125 C 17.078125 -64.882812 17.703125 -62.164062 18.265625 -58.625 C 18.828125 -55.082031 19.617188 -51.957031 20.640625 -49.25 C 21.671875 -46.550781 22.945312 -43.941406 24.46875 -41.421875 C 25.988281 -38.910156 27.210938 -37.65625 28.140625 -37.65625 Z M 28.140625 -37.65625 "/></g></g></g><path stroke-linecap="butt" transform="matrix(1.280351, -0.000000000000000655, 0.000000000000000656, 1.281163, 228.394596, 738.008719)" fill="none" stroke-linejoin="miter" d="M -0.0000502065 1.999429 L 222.1466 1.999429 " stroke="#38b6ff" stroke-width="4" stroke-opacity="1" stroke-miterlimit="4"/><path stroke-linecap="butt" transform="matrix(1.280351, -0.000000000000000655, 0.000000000000000656, 1.281163, 950.890734, 738.008719)" fill="none" stroke-linejoin="miter" d="M -0.0000854329 1.999429 L 222.146564 1.999429 " stroke="#38b6ff" stroke-width="4" stroke-opacity="1" stroke-miterlimit="4"/></svg>